<svg width="329" height="332" viewBox="0 0 329 332" fill="none" xmlns="http://www.w3.org/2000/svg">
<rect width="329" height="329" rx="76" fill="#282828"/>
<path d="M161.451 87.1532C166.222 87.1532 169.915 88.4614 172.531 91.0776C174.994 93.8477 176.225 97.6182 176.225 102.389L176.225 236.74C176.225 241.665 174.917 245.359 172.301 247.821C169.684 250.437 165.991 251.745 161.22 251.745L105.587 251.745C87.7346 251.745 73.9609 247.436 64.2654 238.818C54.57 230.354 49.7222 218.427 49.7222 203.037C49.7222 193.034 51.9537 184.416 56.4167 177.183C60.7258 169.949 67.0356 164.409 75.346 160.562C83.6564 156.714 93.7366 154.791 105.587 154.791L103.509 158.253L95.8911 158.253C89.5814 158.253 84.1181 156.714 79.5012 153.636C74.7304 150.559 70.5752 145.711 67.0356 139.093L49.7222 107.006C47.8755 103.774 47.029 100.619 47.1829 97.5412C47.3368 94.4633 48.4911 91.924 50.6456 89.9234C52.8002 88.0766 55.955 87.1532 60.1102 87.1532C64.2654 87.1532 67.6512 87.9997 70.2674 89.6925C72.8836 91.5393 75.1921 94.3094 77.1927 98.0029L100.508 140.94C103.278 146.172 106.587 149.635 110.434 151.328C114.128 153.175 118.899 154.098 124.747 154.098L146.677 154.098L146.677 102.389C146.677 97.6182 147.908 93.8477 150.37 91.0776C152.833 88.4614 156.526 87.1532 161.451 87.1532ZM146.677 176.028L110.665 176.028C100.046 176.028 92.0437 178.183 86.6573 182.492C81.1171 186.955 78.3469 193.573 78.3469 202.345C78.3469 210.963 81.1171 217.426 86.6573 221.736C92.0437 226.199 100.046 228.43 110.665 228.43L146.677 228.43L146.677 176.028Z" fill="white"/>
<path d="M164.549 251.847C159.778 251.847 156.085 250.539 153.469 247.922C151.006 245.152 149.775 241.382 149.775 236.611L149.775 102.26C149.775 97.3349 151.083 93.6413 153.699 91.179C156.316 88.5628 160.009 87.2547 164.78 87.2547L220.413 87.2547C238.265 87.2547 252.039 91.5637 261.735 100.182C271.43 108.646 276.278 120.573 276.278 135.963C276.278 145.966 274.046 154.584 269.583 161.817C265.274 169.051 258.964 174.591 250.654 178.438C242.344 182.286 232.263 184.209 220.413 184.209L222.491 180.747H230.109C236.419 180.747 241.882 182.286 246.499 185.364C251.27 188.441 255.425 193.289 258.964 199.907L276.278 231.994C278.125 235.226 278.971 238.381 278.817 241.459C278.663 244.537 277.509 247.076 275.354 249.077C273.2 250.923 270.045 251.847 265.89 251.847C261.735 251.847 258.349 251 255.733 249.307C253.116 247.461 250.808 244.691 248.807 240.997L225.492 198.06C222.722 192.828 219.413 189.365 215.566 187.672C211.872 185.825 207.101 184.902 201.253 184.902H179.323V236.611C179.323 241.382 178.092 245.152 175.63 247.922C173.167 250.539 169.474 251.847 164.549 251.847ZM179.323 162.972H215.335C225.954 162.972 233.956 160.817 239.343 156.508C244.883 152.045 247.653 145.427 247.653 136.655C247.653 128.037 244.883 121.574 239.343 117.264C233.956 112.801 225.954 110.57 215.335 110.57L179.323 110.57L179.323 162.972Z" fill="white"/>
</svg>
