<svg width="44" height="44" viewBox="0 0 44 44" fill="none" xmlns="http://www.w3.org/2000/svg">
<path fill-rule="evenodd" clip-rule="evenodd" d="M21.5897 4.33333C14.3226 4.33333 8.57003 9.96105 8.57003 16.6344V23.7634C8.57003 24.1938 8.44187 24.6144 8.20188 24.9717L4.68041 30.2136L4.65709 30.2476C4.25189 30.8267 4.29626 31.3553 4.50539 31.7357C4.72274 32.131 5.19785 32.5 5.96318 32.5H37.4363C37.988 32.5 38.5225 32.1717 38.8209 31.6402C39.1059 31.1326 39.063 30.6708 38.7953 30.3201C38.7813 30.3017 38.7675 30.283 38.754 30.2641L35.0125 25.0222C34.7503 24.6548 34.6093 24.2148 34.6093 23.7634V16.6344C34.6093 13.2856 33.125 10.0846 30.9105 7.95841C28.3934 5.75721 25.1591 4.33333 21.5897 4.33333ZM4.2367 16.6344C4.2367 7.37228 12.1298 0 21.5897 0C26.3682 0 30.6043 1.91852 33.805 4.73318C33.8266 4.75219 33.8478 4.77163 33.8687 4.79149C36.9193 7.69776 38.9427 12.031 38.9427 16.6344V23.0695L42.2632 27.7216C43.7311 29.6714 43.5747 32.0245 42.5994 33.7617C41.6323 35.4842 39.7458 36.8333 37.4363 36.8333H5.96318C1.27844 36.8333 -1.73037 31.8456 1.09383 27.7816L4.2367 23.1032V16.6344ZM13.0158 41.1667C13.0158 39.97 13.9858 39 15.1824 39H28.1824C29.3791 39 30.3491 39.97 30.3491 41.1667C30.3491 42.3633 29.3791 43.3333 28.1824 43.3333H15.1824C13.9858 43.3333 13.0158 42.3633 13.0158 41.1667Z" fill="white"/>
</svg>
